<mxfile host="Electron" agent="Mozilla/5.0 (X11; Linux x86_64) AppleWebKit/537.36 (KHTML, like Gecko) draw.io/27.0.2 Chrome/134.0.6998.205 Electron/35.3.0 Safari/537.36" version="27.0.2">
  <diagram name="PÃ¡gina-1" id="A22Jp9-5l3aL8qkzXpv7">
    <mxGraphModel dx="1699" dy="531" grid="1" gridSize="10" guides="1" tooltips="1" connect="1" arrows="1" fold="1" page="1" pageScale="1" pageWidth="827" pageHeight="1169" math="0" shadow="0">
      <root>
        <mxCell id="0" />
        <mxCell id="1" parent="0" />
        <mxCell id="1g32qy-VpYcUsNeTqc7u-5" value="" style="edgeStyle=orthogonalEdgeStyle;rounded=0;orthogonalLoop=1;jettySize=auto;html=1;" parent="1" source="1g32qy-VpYcUsNeTqc7u-1" target="1g32qy-VpYcUsNeTqc7u-3" edge="1">
          <mxGeometry relative="1" as="geometry" />
        </mxCell>
        <mxCell id="1g32qy-VpYcUsNeTqc7u-1" value="login" style="html=1;dropTarget=0;whiteSpace=wrap;" parent="1" vertex="1">
          <mxGeometry x="210" y="1160" width="180" height="90" as="geometry" />
        </mxCell>
        <mxCell id="1g32qy-VpYcUsNeTqc7u-2" value="" style="shape=module;jettyWidth=8;jettyHeight=4;" parent="1g32qy-VpYcUsNeTqc7u-1" vertex="1">
          <mxGeometry x="1" width="20" height="20" relative="1" as="geometry">
            <mxPoint x="-27" y="7" as="offset" />
          </mxGeometry>
        </mxCell>
        <mxCell id="1g32qy-VpYcUsNeTqc7u-8" value="" style="edgeStyle=orthogonalEdgeStyle;rounded=0;orthogonalLoop=1;jettySize=auto;html=1;" parent="1" source="1g32qy-VpYcUsNeTqc7u-3" target="1g32qy-VpYcUsNeTqc7u-6" edge="1">
          <mxGeometry relative="1" as="geometry" />
        </mxCell>
        <mxCell id="1g32qy-VpYcUsNeTqc7u-11" value="" style="edgeStyle=orthogonalEdgeStyle;rounded=0;orthogonalLoop=1;jettySize=auto;html=1;" parent="1" source="1g32qy-VpYcUsNeTqc7u-3" target="1g32qy-VpYcUsNeTqc7u-9" edge="1">
          <mxGeometry relative="1" as="geometry" />
        </mxCell>
        <mxCell id="1g32qy-VpYcUsNeTqc7u-14" value="" style="edgeStyle=orthogonalEdgeStyle;rounded=0;orthogonalLoop=1;jettySize=auto;html=1;" parent="1" source="1g32qy-VpYcUsNeTqc7u-3" target="1g32qy-VpYcUsNeTqc7u-12" edge="1">
          <mxGeometry relative="1" as="geometry" />
        </mxCell>
        <mxCell id="1g32qy-VpYcUsNeTqc7u-19" value="" style="edgeStyle=orthogonalEdgeStyle;rounded=0;orthogonalLoop=1;jettySize=auto;html=1;" parent="1" source="1g32qy-VpYcUsNeTqc7u-3" target="1g32qy-VpYcUsNeTqc7u-17" edge="1">
          <mxGeometry relative="1" as="geometry" />
        </mxCell>
        <mxCell id="1g32qy-VpYcUsNeTqc7u-22" value="" style="edgeStyle=orthogonalEdgeStyle;rounded=0;orthogonalLoop=1;jettySize=auto;html=1;" parent="1" source="1g32qy-VpYcUsNeTqc7u-3" target="1g32qy-VpYcUsNeTqc7u-20" edge="1">
          <mxGeometry relative="1" as="geometry" />
        </mxCell>
        <mxCell id="1g32qy-VpYcUsNeTqc7u-3" value="dashboard" style="html=1;dropTarget=0;whiteSpace=wrap;" parent="1" vertex="1">
          <mxGeometry x="210" y="1330" width="180" height="90" as="geometry" />
        </mxCell>
        <mxCell id="1g32qy-VpYcUsNeTqc7u-4" value="" style="shape=module;jettyWidth=8;jettyHeight=4;" parent="1g32qy-VpYcUsNeTqc7u-3" vertex="1">
          <mxGeometry x="1" width="20" height="20" relative="1" as="geometry">
            <mxPoint x="-27" y="7" as="offset" />
          </mxGeometry>
        </mxCell>
        <mxCell id="1g32qy-VpYcUsNeTqc7u-6" value="CRUD cliente" style="html=1;dropTarget=0;whiteSpace=wrap;" parent="1" vertex="1">
          <mxGeometry x="-30" y="1480" width="180" height="90" as="geometry" />
        </mxCell>
        <mxCell id="1g32qy-VpYcUsNeTqc7u-7" value="" style="shape=module;jettyWidth=8;jettyHeight=4;" parent="1g32qy-VpYcUsNeTqc7u-6" vertex="1">
          <mxGeometry x="1" width="20" height="20" relative="1" as="geometry">
            <mxPoint x="-27" y="7" as="offset" />
          </mxGeometry>
        </mxCell>
        <mxCell id="1g32qy-VpYcUsNeTqc7u-9" value="CRUD empleado" style="html=1;dropTarget=0;whiteSpace=wrap;" parent="1" vertex="1">
          <mxGeometry x="210" y="1480" width="180" height="90" as="geometry" />
        </mxCell>
        <mxCell id="1g32qy-VpYcUsNeTqc7u-10" value="" style="shape=module;jettyWidth=8;jettyHeight=4;" parent="1g32qy-VpYcUsNeTqc7u-9" vertex="1">
          <mxGeometry x="1" width="20" height="20" relative="1" as="geometry">
            <mxPoint x="-27" y="7" as="offset" />
          </mxGeometry>
        </mxCell>
        <mxCell id="1g32qy-VpYcUsNeTqc7u-12" value="CRUD sucursal" style="html=1;dropTarget=0;whiteSpace=wrap;" parent="1" vertex="1">
          <mxGeometry x="446" y="1480" width="180" height="90" as="geometry" />
        </mxCell>
        <mxCell id="1g32qy-VpYcUsNeTqc7u-13" value="" style="shape=module;jettyWidth=8;jettyHeight=4;" parent="1g32qy-VpYcUsNeTqc7u-12" vertex="1">
          <mxGeometry x="1" width="20" height="20" relative="1" as="geometry">
            <mxPoint x="-27" y="7" as="offset" />
          </mxGeometry>
        </mxCell>
        <mxCell id="1g32qy-VpYcUsNeTqc7u-17" value="CRUD tanque" style="html=1;dropTarget=0;whiteSpace=wrap;" parent="1" vertex="1">
          <mxGeometry x="680" y="1480" width="180" height="90" as="geometry" />
        </mxCell>
        <mxCell id="1g32qy-VpYcUsNeTqc7u-18" value="" style="shape=module;jettyWidth=8;jettyHeight=4;" parent="1g32qy-VpYcUsNeTqc7u-17" vertex="1">
          <mxGeometry x="1" width="20" height="20" relative="1" as="geometry">
            <mxPoint x="-27" y="7" as="offset" />
          </mxGeometry>
        </mxCell>
        <mxCell id="1g32qy-VpYcUsNeTqc7u-25" value="" style="edgeStyle=orthogonalEdgeStyle;rounded=0;orthogonalLoop=1;jettySize=auto;html=1;" parent="1" source="1g32qy-VpYcUsNeTqc7u-20" target="1g32qy-VpYcUsNeTqc7u-23" edge="1">
          <mxGeometry relative="1" as="geometry" />
        </mxCell>
        <mxCell id="1g32qy-VpYcUsNeTqc7u-20" value="CRUD Movimiento" style="html=1;dropTarget=0;whiteSpace=wrap;" parent="1" vertex="1">
          <mxGeometry x="210" y="1664" width="180" height="90" as="geometry" />
        </mxCell>
        <mxCell id="1g32qy-VpYcUsNeTqc7u-21" value="" style="shape=module;jettyWidth=8;jettyHeight=4;" parent="1g32qy-VpYcUsNeTqc7u-20" vertex="1">
          <mxGeometry x="1" width="20" height="20" relative="1" as="geometry">
            <mxPoint x="-27" y="7" as="offset" />
          </mxGeometry>
        </mxCell>
        <mxCell id="1g32qy-VpYcUsNeTqc7u-23" value="CRUD Autorizacion Movimiento" style="html=1;dropTarget=0;whiteSpace=wrap;" parent="1" vertex="1">
          <mxGeometry x="210" y="1800" width="180" height="90" as="geometry" />
        </mxCell>
        <mxCell id="1g32qy-VpYcUsNeTqc7u-24" value="" style="shape=module;jettyWidth=8;jettyHeight=4;" parent="1g32qy-VpYcUsNeTqc7u-23" vertex="1">
          <mxGeometry x="1" width="20" height="20" relative="1" as="geometry">
            <mxPoint x="-27" y="7" as="offset" />
          </mxGeometry>
        </mxCell>
      </root>
    </mxGraphModel>
  </diagram>
</mxfile>
